<svg xmlns="http://www.w3.org/2000/svg" viewBox="0 0 128 128">
  <defs>
    <linearGradient id="bg" x1="0" y1="0" x2="1" y2="1">
      <stop offset="0%" stop-color="#121820" />
      <stop offset="100%" stop-color="#243748" />
    </linearGradient>
    <linearGradient id="accent" x1="0" y1="0" x2="1" y2="1">
      <stop offset="0%" stop-color="#7dd3fc" />
      <stop offset="100%" stop-color="#38bdf8" />
    </linearGradient>
  </defs>

  <rect width="128" height="128" rx="28" fill="url(#bg)" />

  <circle cx="64" cy="64" r="43" fill="none" stroke="url(#accent)" stroke-width="5" />
  <circle cx="64" cy="64" r="24" fill="none" stroke="#f8fafc" stroke-opacity="0.8" stroke-width="3" />

  <path d="M64 12v22M64 94v22M12 64h22M94 64h22" stroke="#38bdf8" stroke-width="5" stroke-linecap="round" />
  <path d="M64 41l13 8v15c0 8-6 15-13 18c-7-3-13-10-13-18V49l13-8z" fill="#0f172a" stroke="#e2e8f0" stroke-width="2.5" stroke-linejoin="round" />
  <circle cx="64" cy="57" r="8" fill="#e2e8f0" />
  <path d="M50 86c2-10 8-16 14-16s12 6 14 16" fill="#111827" stroke="#e2e8f0" stroke-width="2.5" stroke-linecap="round" />
  <path d="M46 52c3-10 10-18 18-22c8 4 15 12 18 22" fill="none" stroke="#38bdf8" stroke-opacity="0.65" stroke-width="4" stroke-linecap="round" />

  <circle cx="64" cy="64" r="4" fill="#f87171" />
</svg>
